<svg version="1.1" id="Layer_1"
    xmlns="http://www.w3.org/2000/svg"
    xmlns:xlink="http://www.w3.org/1999/xlink" x="0px" y="0px" width="100%" viewBox="0 0 100 100" enable-background="new 0 0 100 100" xml:space="preserve">
    <path opacity="1.000000" stroke="none" d=" M62.000000,101.000000   C41.333336,101.000000 21.166674,101.000000 1.000008,101.000000   C1.000005,67.666679 1.000005,34.333351 1.000003,1.000021   C34.333317,1.000014 67.666634,1.000014 100.999969,1.000007   C100.999977,34.333313 100.999977,67.666626 100.999985,100.999969   C88.166664,101.000000 75.333336,101.000000 62.000000,101.000000  M36.634247,64.845360   C46.148678,73.387619 55.536980,82.078911 65.293091,90.335602   C67.062309,91.832901 70.802895,92.633461 72.787018,91.782425   C74.748810,90.940956 76.792557,87.616035 76.821251,85.355392   C77.112526,62.403088 77.102333,39.444427 76.835327,16.491524   C76.808960,14.224979 75.010834,11.373362 73.159744,9.873771   C70.286232,7.545892 67.365471,9.319158 64.914146,11.545764   C57.989704,17.835445 51.091187,24.154806 44.095299,30.364281   C39.705727,34.260418 35.201172,38.030613 30.673117,41.766296   C23.671951,47.542324 21.751215,53.576653 30.483395,59.469082   C32.529926,60.850067 34.252808,62.710678 36.634247,64.845360  z" fill="transparent"/>
    <path fill="#EDEDED" opacity="1.000000" stroke="none" d=" M36.379417,64.597992   C34.252808,62.710678 32.529926,60.850067 30.483395,59.469082   C21.751215,53.576653 23.671951,47.542324 30.673117,41.766296   C35.201172,38.030613 39.705727,34.260418 44.095299,30.364281   C51.091187,24.154806 57.989704,17.835445 64.914146,11.545764   C67.365471,9.319158 70.286232,7.545892 73.159744,9.873771   C75.010834,11.373362 76.808960,14.224979 76.835327,16.491524   C77.102333,39.444427 77.112526,62.403088 76.821251,85.355392   C76.792557,87.616035 74.748810,90.940956 72.787018,91.782425   C70.802895,92.633461 67.062309,91.832901 65.293091,90.335602   C55.536980,82.078911 46.148678,73.387619 36.379417,64.597992  M56.792381,26.297621   C47.806068,34.385391 38.819756,42.473160 29.316338,51.026329   C43.319202,63.581032 56.856609,75.718422 70.394020,87.855812   C70.777954,87.514793 71.161888,87.173782 71.545822,86.832771   C71.545822,62.910316 71.545822,38.987865 71.545822,15.065416   C71.142189,14.747650 70.738564,14.429884 70.334930,14.112117   C65.997253,18.016394 61.659573,21.920671 56.792381,26.297621  z"/>
    <path fill="#474276" opacity="1.000000" stroke="none" d=" M57.057137,26.061285   C61.659573,21.920671 65.997253,18.016394 70.334930,14.112117   C70.738564,14.429884 71.142189,14.747650 71.545822,15.065416   C71.545822,38.987865 71.545822,62.910316 71.545822,86.832771   C71.161888,87.173782 70.777954,87.514793 70.394020,87.855812   C56.856609,75.718422 43.319202,63.581032 29.316338,51.026329   C38.819756,42.473160 47.806068,34.385391 57.057137,26.061285  M44.764282,41.265804   C41.232414,44.453232 37.700546,47.640659 33.927338,51.045895   C45.601402,61.522934 56.867226,71.633591 68.705559,82.258057   C68.705559,61.035606 68.705559,40.884823 68.705559,19.701378   C60.477154,27.123074 52.891205,33.965302 44.764282,41.265804  z"/>
    <path fill="#70BEFD" opacity="1.000000" stroke="none" d=" M45.034767,41.036667   C52.891205,33.965302 60.477154,27.123074 68.705559,19.701378   C68.705559,40.884823 68.705559,61.035606 68.705559,82.258057   C56.867226,71.633591 45.601402,61.522934 33.927338,51.045895   C37.700546,47.640659 41.232414,44.453232 45.034767,41.036667  z"/>
</svg>